<?xml version="1.0" encoding="UTF-8" standalone="no"?>
<!DOCTYPE svg PUBLIC "-//W3C//DTD SVG 1.1//EN"
 "http://www.w3.org/Graphics/SVG/1.1/DTD/svg11.dtd">
<!-- Generated by graphviz version 2.40.1 (20161225.0304)
 -->
<!-- Title: dfd Pages: 1 -->
<svg width="866pt" height="951pt"
 viewBox="0.00 0.00 865.93 951.00" xmlns="http://www.w3.org/2000/svg" xmlns:xlink="http://www.w3.org/1999/xlink">
<g id="graph0" class="graph" transform="scale(1 1) rotate(0) translate(4 947)">
<title>dfd</title>
<polygon fill="#ffffff" stroke="transparent" points="-4,4 -4,-947 861.9256,-947 861.9256,4 -4,4"/>
<!-- od -->
<g id="node1" class="node">
<title>od</title>
<polygon fill="none" stroke="#000000" points="288.1433,-666.5 288.1433,-942.5 540.6873,-942.5 540.6873,-666.5 288.1433,-666.5"/>
<text text-anchor="middle" x="414.4153" y="-927.3" font-family="Times,serif" font-size="14.00" fill="#000000">Origin&#45;Destination</text>
<polyline fill="none" stroke="#000000" points="288.1433,-920.5 540.6873,-920.5 "/>
<text text-anchor="middle" x="414.4153" y="-905.3" font-family="Times,serif" font-size="14.00" fill="#000000">ST: 2&#45;letter postal code</text>
<polyline fill="none" stroke="#000000" points="288.1433,-898.5 540.6873,-898.5 "/>
<text text-anchor="middle" x="414.4153" y="-883.3" font-family="Times,serif" font-size="14.00" fill="#000000">PART: main or aux </text>
<text text-anchor="middle" x="414.4153" y="-869.3" font-family="Times,serif" font-size="14.00" fill="#000000"> (i.e. work in home state or not)</text>
<polyline fill="none" stroke="#000000" points="288.1433,-862.5 540.6873,-862.5 "/>
<text text-anchor="middle" x="414.4153" y="-847.3" font-family="Times,serif" font-size="14.00" fill="#000000">TYPE: Job Type </text>
<text text-anchor="middle" x="414.4153" y="-833.3" font-family="Times,serif" font-size="14.00" fill="#000000"> All, primary, all private, private primary, </text>
<text text-anchor="middle" x="414.4153" y="-819.3" font-family="Times,serif" font-size="14.00" fill="#000000"> all federal, federal primary</text>
<polyline fill="none" stroke="#000000" points="288.1433,-812.5 540.6873,-812.5 "/>
<text text-anchor="middle" x="414.4153" y="-797.3" font-family="Times,serif" font-size="14.00" fill="#000000">YEAR: Year of job data</text>
<polyline fill="none" stroke="#000000" points="288.1433,-790.5 540.6873,-790.5 "/>
<text text-anchor="middle" x="414.4153" y="-775.3" font-family="Times,serif" font-size="14.00" fill="#000000">w_geocode: Workplace census block code</text>
<polyline fill="none" stroke="#000000" points="288.1433,-768.5 540.6873,-768.5 "/>
<text text-anchor="middle" x="414.4153" y="-753.3" font-family="Times,serif" font-size="14.00" fill="#000000">h_geocode: Residence census block code</text>
<polyline fill="none" stroke="#000000" points="288.1433,-746.5 540.6873,-746.5 "/>
<text text-anchor="middle" x="414.4153" y="-731.3" font-family="Times,serif" font-size="14.00" fill="#000000">S000: Total number of jobs</text>
<polyline fill="none" stroke="#000000" points="288.1433,-724.5 540.6873,-724.5 "/>
<text text-anchor="middle" x="414.4153" y="-709.3" font-family="Times,serif" font-size="14.00" fill="#000000">SA01: Number of jobs of workers </text>
<text text-anchor="middle" x="414.4153" y="-695.3" font-family="Times,serif" font-size="14.00" fill="#000000"> age 29 or younger</text>
<polyline fill="none" stroke="#000000" points="288.1433,-688.5 540.6873,-688.5 "/>
<text text-anchor="middle" x="414.4153" y="-673.3" font-family="Times,serif" font-size="14.00" fill="#000000">...</text>
</g>
<!-- xwalk -->
<g id="node4" class="node">
<title>xwalk</title>
<polygon fill="none" stroke="#000000" points="272.53,-255.5 272.53,-629.5 556.3006,-629.5 556.3006,-255.5 272.53,-255.5"/>
<text text-anchor="middle" x="414.4153" y="-614.3" font-family="Times,serif" font-size="14.00" fill="#000000">Geography Crosswalk</text>
<polyline fill="none" stroke="#000000" points="272.53,-607.5 556.3006,-607.5 "/>
<text text-anchor="middle" x="414.4153" y="-592.3" font-family="Times,serif" font-size="14.00" fill="#000000">ST: 2&#45;letter postal code</text>
<polyline fill="none" stroke="#000000" points="272.53,-585.5 556.3006,-585.5 "/>
<text text-anchor="middle" x="414.4153" y="-570.3" font-family="Times,serif" font-size="14.00" fill="#000000">KEY tabblk2010: 2010 census block code KEY</text>
<polyline fill="none" stroke="#000000" points="272.53,-563.5 556.3006,-563.5 "/>
<text text-anchor="middle" x="414.4153" y="-548.3" font-family="Times,serif" font-size="14.00" fill="#000000">stusps: USPS state code</text>
<polyline fill="none" stroke="#000000" points="272.53,-541.5 556.3006,-541.5 "/>
<text text-anchor="middle" x="414.4153" y="-526.3" font-family="Times,serif" font-size="14.00" fill="#000000">cty: FIPS county code</text>
<polyline fill="none" stroke="#000000" points="272.53,-519.5 556.3006,-519.5 "/>
<text text-anchor="middle" x="414.4153" y="-504.3" font-family="Times,serif" font-size="14.00" fill="#000000">ctyname: county name</text>
<polyline fill="none" stroke="#000000" points="272.53,-497.5 556.3006,-497.5 "/>
<text text-anchor="middle" x="414.4153" y="-482.3" font-family="Times,serif" font-size="14.00" fill="#000000">trct: census tract code</text>
<polyline fill="none" stroke="#000000" points="272.53,-475.5 556.3006,-475.5 "/>
<text text-anchor="middle" x="414.4153" y="-460.3" font-family="Times,serif" font-size="14.00" fill="#000000">trctname: trace name</text>
<polyline fill="none" stroke="#000000" points="272.53,-453.5 556.3006,-453.5 "/>
<text text-anchor="middle" x="414.4153" y="-438.3" font-family="Times,serif" font-size="14.00" fill="#000000">bgrp: census blockgroup code</text>
<polyline fill="none" stroke="#000000" points="272.53,-431.5 556.3006,-431.5 "/>
<text text-anchor="middle" x="414.4153" y="-416.3" font-family="Times,serif" font-size="14.00" fill="#000000">bgrpname: census blockgroup name</text>
<polyline fill="none" stroke="#000000" points="272.53,-409.5 556.3006,-409.5 "/>
<text text-anchor="middle" x="414.4153" y="-394.3" font-family="Times,serif" font-size="14.00" fill="#000000">cbsa: CBSA code</text>
<polyline fill="none" stroke="#000000" points="272.53,-387.5 556.3006,-387.5 "/>
<text text-anchor="middle" x="414.4153" y="-372.3" font-family="Times,serif" font-size="14.00" fill="#000000">cbsaname: CBSA name</text>
<polyline fill="none" stroke="#000000" points="272.53,-365.5 556.3006,-365.5 "/>
<text text-anchor="middle" x="414.4153" y="-350.3" font-family="Times,serif" font-size="14.00" fill="#000000">zcta: ZIP code tabulation area (ZCTA) code</text>
<polyline fill="none" stroke="#000000" points="272.53,-343.5 556.3006,-343.5 "/>
<text text-anchor="middle" x="414.4153" y="-328.3" font-family="Times,serif" font-size="14.00" fill="#000000">zctaname: ZCTA name</text>
<polyline fill="none" stroke="#000000" points="272.53,-321.5 556.3006,-321.5 "/>
<text text-anchor="middle" x="414.4153" y="-306.3" font-family="Times,serif" font-size="14.00" fill="#000000">blklatdd: latitude</text>
<polyline fill="none" stroke="#000000" points="272.53,-299.5 556.3006,-299.5 "/>
<text text-anchor="middle" x="414.4153" y="-284.3" font-family="Times,serif" font-size="14.00" fill="#000000">blklondd: longitude</text>
<polyline fill="none" stroke="#000000" points="272.53,-277.5 556.3006,-277.5 "/>
<text text-anchor="middle" x="414.4153" y="-262.3" font-family="Times,serif" font-size="14.00" fill="#000000">...</text>
</g>
<!-- od&#45;&gt;xwalk -->
<g id="edge5" class="edge">
<title>od:w_geocode&#45;&gt;xwalk:tabblk2010</title>
<path fill="none" stroke="#000000" d="M540.4153,-779.5C582.5395,-779.5 599.4282,-605.28 566.0105,-578.0582"/>
<polygon fill="#000000" stroke="#000000" points="567.0083,-574.6954 556.4153,-574.5 564.5745,-581.2586 567.0083,-574.6954"/>
</g>
<!-- od&#45;&gt;xwalk -->
<g id="edge6" class="edge">
<title>od:h_geocode&#45;&gt;xwalk:tabblk2010</title>
<path fill="none" stroke="#000000" d="M540.4153,-757.5C618.5508,-757.5 636.5627,-589.8887 566.4014,-575.4846"/>
<polygon fill="#000000" stroke="#000000" points="566.7105,-571.9982 556.4153,-574.5 566.0236,-578.9644 566.7105,-571.9982"/>
</g>
<!-- rac -->
<g id="node2" class="node">
<title>rac</title>
<polygon fill="none" stroke="#000000" points="38.3294,-.5 38.3294,-218.5 288.5012,-218.5 288.5012,-.5 38.3294,-.5"/>
<text text-anchor="middle" x="163.4153" y="-203.3" font-family="Times,serif" font-size="14.00" fill="#000000">Residence Area Characteristics</text>
<polyline fill="none" stroke="#000000" points="38.3294,-196.5 288.5012,-196.5 "/>
<text text-anchor="middle" x="163.4153" y="-181.3" font-family="Times,serif" font-size="14.00" fill="#000000">ST: 2&#45;letter postal code</text>
<polyline fill="none" stroke="#000000" points="38.3294,-174.5 288.5012,-174.5 "/>
<text text-anchor="middle" x="163.4153" y="-159.3" font-family="Times,serif" font-size="14.00" fill="#000000">SEG: Segment of workforce </text>
<text text-anchor="middle" x="163.4153" y="-145.3" font-family="Times,serif" font-size="14.00" fill="#000000"> S000 &#45; SI03</text>
<polyline fill="none" stroke="#000000" points="38.3294,-138.5 288.5012,-138.5 "/>
<text text-anchor="middle" x="163.4153" y="-123.3" font-family="Times,serif" font-size="14.00" fill="#000000">TYPE: Job Type </text>
<text text-anchor="middle" x="163.4153" y="-109.3" font-family="Times,serif" font-size="14.00" fill="#000000"> All, primary, all private, private primary, </text>
<text text-anchor="middle" x="163.4153" y="-95.3" font-family="Times,serif" font-size="14.00" fill="#000000"> all federal, federal primary</text>
<polyline fill="none" stroke="#000000" points="38.3294,-88.5 288.5012,-88.5 "/>
<text text-anchor="middle" x="163.4153" y="-73.3" font-family="Times,serif" font-size="14.00" fill="#000000">YEAR: Year of job data</text>
<polyline fill="none" stroke="#000000" points="38.3294,-66.5 288.5012,-66.5 "/>
<text text-anchor="middle" x="163.4153" y="-51.3" font-family="Times,serif" font-size="14.00" fill="#000000">h_geocode: Residence census block code</text>
<polyline fill="none" stroke="#000000" points="38.3294,-44.5 288.5012,-44.5 "/>
<text text-anchor="middle" x="163.4153" y="-29.3" font-family="Times,serif" font-size="14.00" fill="#000000">S000: Total number of jobs</text>
<polyline fill="none" stroke="#000000" points="38.3294,-22.5 288.5012,-22.5 "/>
<text text-anchor="middle" x="163.4153" y="-7.3" font-family="Times,serif" font-size="14.00" fill="#000000">...</text>
</g>
<!-- rac&#45;&gt;od -->
<g id="edge1" class="edge">
<title>rac:h_geocode&#45;&gt;od:h_geocode</title>
<path fill="none" stroke="#000000" d="M38.4153,-55.5C24.6881,-55.5 -124.8731,-745.8941 278.1778,-757.3557"/>
<polygon fill="#000000" stroke="#000000" points="278.3669,-760.8586 288.4153,-757.5 278.4657,-753.8593 278.3669,-760.8586"/>
</g>
<!-- rac&#45;&gt;od -->
<g id="edge2" class="edge">
<title>rac:SEG&#45;&gt;od:SA01</title>
<path fill="none" stroke="#000000" d="M288.4153,-156.5C316.1931,-156.5 301.3072,-194.395 288.4153,-219 275.3697,-243.8985 249.4609,-230.1015 236.4153,-255 14.0146,-679.4669 67.8791,-705.7654 278.2784,-706.4836"/>
<polygon fill="#000000" stroke="#000000" points="278.4096,-709.9838 288.4153,-706.5 278.421,-702.9838 278.4096,-709.9838"/>
</g>
<!-- rac&#45;&gt;xwalk -->
<g id="edge7" class="edge">
<title>rac:h_geocode&#45;&gt;xwalk:tabblk2010</title>
<path fill="none" stroke="#000000" d="M288.4153,-55.5C361.082,-55.5 303.5003,-147.9163 288.4153,-219 284.7806,-236.1277 276.05,-237.8723 272.4153,-255 258.4248,-320.9264 207.0222,-549.5703 262.5613,-572.622"/>
<polygon fill="#000000" stroke="#000000" points="261.9368,-576.0659 272.4153,-574.5 263.2474,-569.1897 261.9368,-576.0659"/>
</g>
<!-- wac -->
<g id="node3" class="node">
<title>wac</title>
<polygon fill="none" stroke="#000000" points="540.3294,-.5 540.3294,-218.5 790.5012,-218.5 790.5012,-.5 540.3294,-.5"/>
<text text-anchor="middle" x="665.4153" y="-203.3" font-family="Times,serif" font-size="14.00" fill="#000000">Workplace Area Characteristics</text>
<polyline fill="none" stroke="#000000" points="540.3294,-196.5 790.5012,-196.5 "/>
<text text-anchor="middle" x="665.4153" y="-181.3" font-family="Times,serif" font-size="14.00" fill="#000000">ST: 2&#45;letter postal code</text>
<polyline fill="none" stroke="#000000" points="540.3294,-174.5 790.5012,-174.5 "/>
<text text-anchor="middle" x="665.4153" y="-159.3" font-family="Times,serif" font-size="14.00" fill="#000000">SEG: Segment of workforce </text>
<text text-anchor="middle" x="665.4153" y="-145.3" font-family="Times,serif" font-size="14.00" fill="#000000"> S000 &#45; SI03</text>
<polyline fill="none" stroke="#000000" points="540.3294,-138.5 790.5012,-138.5 "/>
<text text-anchor="middle" x="665.4153" y="-123.3" font-family="Times,serif" font-size="14.00" fill="#000000">TYPE: Job Type </text>
<text text-anchor="middle" x="665.4153" y="-109.3" font-family="Times,serif" font-size="14.00" fill="#000000"> All, primary, all private, private primary, </text>
<text text-anchor="middle" x="665.4153" y="-95.3" font-family="Times,serif" font-size="14.00" fill="#000000"> all federal, federal primary</text>
<polyline fill="none" stroke="#000000" points="540.3294,-88.5 790.5012,-88.5 "/>
<text text-anchor="middle" x="665.4153" y="-73.3" font-family="Times,serif" font-size="14.00" fill="#000000">YEAR: Year of job data</text>
<polyline fill="none" stroke="#000000" points="540.3294,-66.5 790.5012,-66.5 "/>
<text text-anchor="middle" x="665.4153" y="-51.3" font-family="Times,serif" font-size="14.00" fill="#000000">w_geocode: Work census block code</text>
<polyline fill="none" stroke="#000000" points="540.3294,-44.5 790.5012,-44.5 "/>
<text text-anchor="middle" x="665.4153" y="-29.3" font-family="Times,serif" font-size="14.00" fill="#000000">S000: Total number of jobs</text>
<polyline fill="none" stroke="#000000" points="540.3294,-22.5 790.5012,-22.5 "/>
<text text-anchor="middle" x="665.4153" y="-7.3" font-family="Times,serif" font-size="14.00" fill="#000000">...</text>
</g>
<!-- wac&#45;&gt;od -->
<g id="edge3" class="edge">
<title>wac:w_geocode&#45;&gt;od:w_geocode</title>
<path fill="none" stroke="#000000" d="M790.4153,-55.5C863.082,-55.5 817.262,-151.4745 790.4153,-219 782.2845,-239.4508 768.3607,-236.5162 756.4153,-255 621.4485,-463.8414 787.849,-770.9668 550.5191,-779.3257"/>
<polygon fill="#000000" stroke="#000000" points="550.3534,-775.8279 540.4153,-779.5 550.4742,-782.8269 550.3534,-775.8279"/>
</g>
<!-- wac&#45;&gt;od -->
<g id="edge4" class="edge">
<title>wac:SEG&#45;&gt;od:SA01</title>
<path fill="none" stroke="#000000" d="M790.4153,-156.5C805.0518,-156.5 1035.3698,-699.0062 550.5287,-706.4232"/>
<polygon fill="#000000" stroke="#000000" points="550.3884,-702.9241 540.4153,-706.5 550.4416,-709.9239 550.3884,-702.9241"/>
</g>
<!-- wac&#45;&gt;xwalk -->
<g id="edge8" class="edge">
<title>wac:w_geocode&#45;&gt;xwalk:tabblk2010</title>
<path fill="none" stroke="#000000" d="M540.4153,-55.5C467.7486,-55.5 525.3303,-147.9163 540.4153,-219 544.05,-236.1277 552.7806,-237.8723 556.4153,-255 570.4058,-320.9264 621.8084,-549.5703 566.2693,-572.622"/>
<polygon fill="#000000" stroke="#000000" points="565.5832,-569.1897 556.4153,-574.5 566.8938,-576.0659 565.5832,-569.1897"/>
</g>
</g>
</svg>
